<svg width="16" height="16" viewBox="0 0 16 16" fill="none" xmlns="http://www.w3.org/2000/svg">
<path d="M11.3331 12C11.1563 12 10.9868 11.9298 10.8617 11.8048C10.7367 11.6797 10.6665 11.5102 10.6665 11.3334V6.27335L5.1398 11.8067C5.01426 11.9322 4.844 12.0027 4.66646 12.0027C4.48893 12.0027 4.31867 11.9322 4.19313 11.8067C4.0676 11.6811 3.99707 11.5109 3.99707 11.3334C3.99707 11.1558 4.0676 10.9856 4.19313 10.86L9.72646 5.33335H4.66646C4.48965 5.33335 4.32008 5.26311 4.19506 5.13809C4.07004 5.01307 3.9998 4.8435 3.9998 4.66669C3.9998 4.48987 4.07004 4.3203 4.19506 4.19528C4.32008 4.07026 4.48965 4.00002 4.66646 4.00002H11.3331C11.4202 4.00107 11.5063 4.01919 11.5865 4.05335C11.7494 4.121 11.8788 4.25045 11.9465 4.41335C11.9806 4.4935 11.9987 4.57957 11.9998 4.66669V11.3334C11.9998 11.5102 11.9296 11.6797 11.8045 11.8048C11.6795 11.9298 11.5099 12 11.3331 12Z" fill="#F9681E"/>
</svg>
