<svg width="65" height="65" viewBox="0 0 65 65" fill="none" xmlns="http://www.w3.org/2000/svg">
<rect width="65" height="65" rx="32.5" fill="white"/>
<path d="M42.7082 20.8334H39.7915V19.375C39.7915 18.9882 39.6379 18.6173 39.3644 18.3438C39.0909 18.0703 38.7199 17.9167 38.3332 17.9167C37.9464 17.9167 37.5755 18.0703 37.302 18.3438C37.0285 18.6173 36.8748 18.9882 36.8748 19.375V20.8334H28.1248V19.375C28.1248 18.9882 27.9712 18.6173 27.6977 18.3438C27.4242 18.0703 27.0533 17.9167 26.6665 17.9167C26.2797 17.9167 25.9088 18.0703 25.6353 18.3438C25.3618 18.6173 25.2082 18.9882 25.2082 19.375V20.8334H22.2915C21.1312 20.8334 20.0184 21.2943 19.1979 22.1148C18.3774 22.9352 17.9165 24.048 17.9165 25.2084V42.7084C17.9165 43.8687 18.3774 44.9815 19.1979 45.8019C20.0184 46.6224 21.1312 47.0834 22.2915 47.0834H42.7082C43.8685 47.0834 44.9813 46.6224 45.8018 45.8019C46.6222 44.9815 47.0832 43.8687 47.0832 42.7084V25.2084C47.0832 24.048 46.6222 22.9352 45.8018 22.1148C44.9813 21.2943 43.8685 20.8334 42.7082 20.8334ZM44.1665 42.7084C44.1665 43.0951 44.0129 43.4661 43.7394 43.7396C43.4659 44.013 43.0949 44.1667 42.7082 44.1667H22.2915C21.9047 44.1667 21.5338 44.013 21.2603 43.7396C20.9868 43.4661 20.8332 43.0951 20.8332 42.7084V32.5H44.1665V42.7084ZM44.1665 29.5834H20.8332V25.2084C20.8332 24.8216 20.9868 24.4506 21.2603 24.1772C21.5338 23.9037 21.9047 23.75 22.2915 23.75H25.2082V25.2084C25.2082 25.5951 25.3618 25.9661 25.6353 26.2396C25.9088 26.513 26.2797 26.6667 26.6665 26.6667C27.0533 26.6667 27.4242 26.513 27.6977 26.2396C27.9712 25.9661 28.1248 25.5951 28.1248 25.2084V23.75H36.8748V25.2084C36.8748 25.5951 37.0285 25.9661 37.302 26.2396C37.5755 26.513 37.9464 26.6667 38.3332 26.6667C38.7199 26.6667 39.0909 26.513 39.3644 26.2396C39.6379 25.9661 39.7915 25.5951 39.7915 25.2084V23.75H42.7082C43.0949 23.75 43.4659 23.9037 43.7394 24.1772C44.0129 24.4506 44.1665 24.8216 44.1665 25.2084V29.5834Z" fill="#F9681E"/>
</svg>
