<svg width="65" height="65" viewBox="0 0 65 65" fill="none" xmlns="http://www.w3.org/2000/svg">
<rect width="65" height="65" rx="32.5" fill="white"/>
<path d="M20.4103 38.7563C20.2717 38.6235 20.1081 38.5194 19.9291 38.45C19.5741 38.3041 19.1758 38.3041 18.8208 38.45C18.6418 38.5194 18.4782 38.6235 18.3395 38.7563C18.2067 38.8949 18.1027 39.0585 18.0333 39.2375C17.9216 39.5031 17.8911 39.7958 17.9456 40.0787C18.0001 40.3616 18.1372 40.622 18.3395 40.8271C18.4813 40.9559 18.644 41.0595 18.8208 41.1333C18.9953 41.2105 19.1841 41.2503 19.3749 41.2503C19.5658 41.2503 19.7545 41.2105 19.9291 41.1333C20.1058 41.0595 20.2686 40.9559 20.4103 40.8271C20.6127 40.622 20.7498 40.3616 20.8043 40.0787C20.8588 39.7958 20.8283 39.5031 20.7166 39.2375C20.6472 39.0585 20.5431 38.8949 20.4103 38.7563ZM25.2083 26.6667H45.6249C46.0117 26.6667 46.3826 26.513 46.6561 26.2395C46.9296 25.966 47.0833 25.5951 47.0833 25.2083C47.0833 24.8216 46.9296 24.4506 46.6561 24.1771C46.3826 23.9036 46.0117 23.75 45.6249 23.75H25.2083C24.8215 23.75 24.4506 23.9036 24.1771 24.1771C23.9036 24.4506 23.7499 24.8216 23.7499 25.2083C23.7499 25.5951 23.9036 25.966 24.1771 26.2395C24.4506 26.513 24.8215 26.6667 25.2083 26.6667ZM20.4103 31.4646C20.2053 31.2622 19.9449 31.1252 19.662 31.0706C19.3791 31.0161 19.0863 31.0467 18.8208 31.1583C18.644 31.2322 18.4813 31.3358 18.3395 31.4646C18.2067 31.6033 18.1027 31.7668 18.0333 31.9458C17.9561 32.1204 17.9163 32.3091 17.9163 32.5C17.9163 32.6909 17.9561 32.8796 18.0333 33.0542C18.1071 33.2309 18.2107 33.3937 18.3395 33.5354C18.4813 33.6642 18.644 33.7678 18.8208 33.8417C18.9953 33.9188 19.1841 33.9587 19.3749 33.9587C19.5658 33.9587 19.7545 33.9188 19.9291 33.8417C20.1058 33.7678 20.2686 33.6642 20.4103 33.5354C20.5392 33.3937 20.6427 33.2309 20.7166 33.0542C20.7938 32.8796 20.8336 32.6909 20.8336 32.5C20.8336 32.3091 20.7938 32.1204 20.7166 31.9458C20.6472 31.7668 20.5431 31.6033 20.4103 31.4646ZM45.6249 31.0417H25.2083C24.8215 31.0417 24.4506 31.1953 24.1771 31.4688C23.9036 31.7423 23.7499 32.1132 23.7499 32.5C23.7499 32.8868 23.9036 33.2577 24.1771 33.5312C24.4506 33.8047 24.8215 33.9583 25.2083 33.9583H45.6249C46.0117 33.9583 46.3826 33.8047 46.6561 33.5312C46.9296 33.2577 47.0833 32.8868 47.0833 32.5C47.0833 32.1132 46.9296 31.7423 46.6561 31.4688C46.3826 31.1953 46.0117 31.0417 45.6249 31.0417ZM20.4103 24.1729C20.2717 24.0401 20.1081 23.9361 19.9291 23.8667C19.6635 23.755 19.3708 23.7245 19.0879 23.779C18.805 23.8335 18.5446 23.9706 18.3395 24.1729C18.2107 24.3147 18.1071 24.4774 18.0333 24.6542C17.9561 24.8287 17.9163 25.0175 17.9163 25.2083C17.9163 25.3992 17.9561 25.5879 18.0333 25.7625C18.1071 25.9392 18.2107 26.102 18.3395 26.2438C18.4813 26.3726 18.644 26.4761 18.8208 26.55C19.0863 26.6617 19.3791 26.6922 19.662 26.6377C19.9449 26.5832 20.2053 26.4461 20.4103 26.2438C20.5392 26.102 20.6427 25.9392 20.7166 25.7625C20.7938 25.5879 20.8336 25.3992 20.8336 25.2083C20.8336 25.0175 20.7938 24.8287 20.7166 24.6542C20.6427 24.4774 20.5392 24.3147 20.4103 24.1729ZM45.6249 38.3333H25.2083C24.8215 38.3333 24.4506 38.487 24.1771 38.7605C23.9036 39.034 23.7499 39.4049 23.7499 39.7917C23.7499 40.1784 23.9036 40.5494 24.1771 40.8229C24.4506 41.0964 24.8215 41.25 25.2083 41.25H45.6249C46.0117 41.25 46.3826 41.0964 46.6561 40.8229C46.9296 40.5494 47.0833 40.1784 47.0833 39.7917C47.0833 39.4049 46.9296 39.034 46.6561 38.7605C46.3826 38.487 46.0117 38.3333 45.6249 38.3333Z" fill="#F9681E"/>
</svg>
