<svg width="65" height="65" viewBox="0 0 65 65" fill="none" xmlns="http://www.w3.org/2000/svg">
<rect width="65" height="65" rx="32.5" fill="white"/>
<path d="M32.4999 17.9167C30.2655 17.9126 28.0601 18.422 26.0539 19.4056C24.0477 20.3891 22.2943 21.8205 20.9291 23.5892C19.5639 25.358 18.6233 27.4167 18.18 29.6067C17.7367 31.7966 17.8026 34.0591 18.3725 36.2195C18.9423 38.3799 20.001 40.3805 21.4668 42.0669C22.9325 43.7533 24.7662 45.0803 26.8262 45.9455C28.8862 46.8107 31.1175 47.191 33.3478 47.0571C35.5781 46.9231 37.7478 46.2785 39.6894 45.1729H39.7915H39.8644C42.6721 43.5746 44.8696 41.0892 46.1119 38.1069C47.3542 35.1246 47.571 31.8141 46.7283 28.6953C45.8855 25.5764 44.031 22.8256 41.4558 20.8748C38.8805 18.9239 35.7304 17.8835 32.4999 17.9167ZM33.9582 20.9354C36.5249 21.2609 38.9106 22.4303 40.74 24.2598C42.5695 26.0893 43.739 28.475 44.0644 31.0417H33.9582V20.9354ZM32.4999 44.1667C29.546 44.1465 26.7098 43.0066 24.5635 40.9771C22.4173 38.9475 21.1208 36.1793 20.9357 33.2312C20.7506 30.2831 21.6908 27.3745 23.5664 25.0925C25.442 22.8104 28.1134 21.3248 31.0415 20.9354V32.5C31.0473 32.6746 31.0818 32.847 31.1436 33.0104V33.1271V33.2292L36.9769 43.2479C35.562 43.8535 34.039 44.1661 32.4999 44.1667ZM39.5436 41.775L35.0228 33.9583H44.0644C43.8681 35.4963 43.3672 36.9797 42.5909 38.3218C41.8147 39.6639 40.7787 40.8378 39.5436 41.775Z" fill="#F9681E"/>
</svg>
