<svg width="65" height="65" viewBox="0 0 65 65" fill="none" xmlns="http://www.w3.org/2000/svg">
<rect width="65" height="65" rx="32.5" fill="white"/>
<path d="M19.3748 28.125C19.7616 28.125 20.1325 27.9714 20.406 27.6979C20.6795 27.4244 20.8332 27.0535 20.8332 26.6667V22.2917C20.8332 21.9049 20.9868 21.534 21.2603 21.2605C21.5338 20.987 21.9047 20.8334 22.2915 20.8334H26.6665C27.0533 20.8334 27.4242 20.6797 27.6977 20.4062C27.9712 20.1327 28.1248 19.7618 28.1248 19.375C28.1248 18.9882 27.9712 18.6173 27.6977 18.3438C27.4242 18.0703 27.0533 17.9167 26.6665 17.9167H22.2915C21.1312 17.9167 20.0184 18.3776 19.1979 19.1981C18.3774 20.0186 17.9165 21.1314 17.9165 22.2917V26.6667C17.9165 27.0535 18.0701 27.4244 18.3436 27.6979C18.6171 27.9714 18.9881 28.125 19.3748 28.125ZM26.6665 44.1667H22.2915C21.9047 44.1667 21.5338 44.013 21.2603 43.7396C20.9868 43.4661 20.8332 43.0951 20.8332 42.7084V38.3334C20.8332 37.9466 20.6795 37.5756 20.406 37.3022C20.1325 37.0287 19.7616 36.875 19.3748 36.875C18.9881 36.875 18.6171 37.0287 18.3436 37.3022C18.0701 37.5756 17.9165 37.9466 17.9165 38.3334V42.7084C17.9165 43.8687 18.3774 44.9815 19.1979 45.8019C20.0184 46.6224 21.1312 47.0834 22.2915 47.0834H26.6665C27.0533 47.0834 27.4242 46.9297 27.6977 46.6562C27.9712 46.3827 28.1248 46.0118 28.1248 45.625C28.1248 45.2382 27.9712 44.8673 27.6977 44.5938C27.4242 44.3203 27.0533 44.1667 26.6665 44.1667ZM39.7915 33.9584C40.1783 33.9584 40.5492 33.8047 40.8227 33.5312C41.0962 33.2577 41.2498 32.8868 41.2498 32.5C41.2498 32.1132 41.0962 31.7423 40.8227 31.4688C40.5492 31.1953 40.1783 31.0417 39.7915 31.0417H38.129C37.8671 30.0386 37.3427 29.1233 36.6096 28.3903C35.8765 27.6572 34.9613 27.1327 33.9582 26.8709V25.2084C33.9582 24.8216 33.8045 24.4506 33.531 24.1772C33.2575 23.9037 32.8866 23.75 32.4998 23.75C32.1131 23.75 31.7421 23.9037 31.4686 24.1772C31.1951 24.4506 31.0415 24.8216 31.0415 25.2084V26.8709C30.0384 27.1327 29.1232 27.6572 28.3901 28.3903C27.657 29.1233 27.1325 30.0386 26.8707 31.0417H25.2082C24.8214 31.0417 24.4505 31.1953 24.177 31.4688C23.9035 31.7423 23.7498 32.1132 23.7498 32.5C23.7498 32.8868 23.9035 33.2577 24.177 33.5312C24.4505 33.8047 24.8214 33.9584 25.2082 33.9584H26.8707C27.1325 34.9615 27.657 35.8767 28.3901 36.6098C29.1232 37.3429 30.0384 37.8673 31.0415 38.1292V39.7917C31.0415 40.1785 31.1951 40.5494 31.4686 40.8229C31.7421 41.0964 32.1131 41.25 32.4998 41.25C32.8866 41.25 33.2575 41.0964 33.531 40.8229C33.8045 40.5494 33.9582 40.1785 33.9582 39.7917V38.1292C34.9613 37.8673 35.8765 37.3429 36.6096 36.6098C37.3427 35.8767 37.8671 34.9615 38.129 33.9584H39.7915ZM32.4998 35.4167C31.923 35.4167 31.3591 35.2456 30.8794 34.9251C30.3998 34.6047 30.0259 34.1491 29.8052 33.6162C29.5844 33.0832 29.5267 32.4968 29.6392 31.931C29.7518 31.3652 30.0295 30.8455 30.4374 30.4376C30.8453 30.0297 31.365 29.7519 31.9308 29.6394C32.4966 29.5269 33.083 29.5846 33.616 29.8054C34.1489 30.0261 34.6045 30.4 34.925 30.8796C35.2454 31.3593 35.4165 31.9232 35.4165 32.5C35.4165 33.2736 35.1092 34.0154 34.5622 34.5624C34.0152 35.1094 33.2734 35.4167 32.4998 35.4167ZM45.6248 36.875C45.2381 36.875 44.8671 37.0287 44.5936 37.3022C44.3201 37.5756 44.1665 37.9466 44.1665 38.3334V42.7084C44.1665 43.0951 44.0129 43.4661 43.7394 43.7396C43.4659 44.013 43.0949 44.1667 42.7082 44.1667H38.3332C37.9464 44.1667 37.5755 44.3203 37.302 44.5938C37.0285 44.8673 36.8748 45.2382 36.8748 45.625C36.8748 46.0118 37.0285 46.3827 37.302 46.6562C37.5755 46.9297 37.9464 47.0834 38.3332 47.0834H42.7082C43.8685 47.0834 44.9813 46.6224 45.8018 45.8019C46.6222 44.9815 47.0832 43.8687 47.0832 42.7084V38.3334C47.0832 37.9466 46.9295 37.5756 46.656 37.3022C46.3825 37.0287 46.0116 36.875 45.6248 36.875ZM42.7082 17.9167H38.3332C37.9464 17.9167 37.5755 18.0703 37.302 18.3438C37.0285 18.6173 36.8748 18.9882 36.8748 19.375C36.8748 19.7618 37.0285 20.1327 37.302 20.4062C37.5755 20.6797 37.9464 20.8334 38.3332 20.8334H42.7082C43.0949 20.8334 43.4659 20.987 43.7394 21.2605C44.0129 21.534 44.1665 21.9049 44.1665 22.2917V26.6667C44.1665 27.0535 44.3201 27.4244 44.5936 27.6979C44.8671 27.9714 45.2381 28.125 45.6248 28.125C46.0116 28.125 46.3825 27.9714 46.656 27.6979C46.9295 27.4244 47.0832 27.0535 47.0832 26.6667V22.2917C47.0832 21.1314 46.6222 20.0186 45.8018 19.1981C44.9813 18.3776 43.8685 17.9167 42.7082 17.9167Z" fill="#F9681E"/>
</svg>
