<svg width="20" height="20" viewBox="0 0 20 20" fill="none" xmlns="http://www.w3.org/2000/svg">
<path d="M10.0001 1.66663C8.35191 1.66663 6.74074 2.15537 5.37033 3.07105C3.99992 3.98672 2.93182 5.28821 2.30109 6.81093C1.67036 8.33365 1.50533 10.0092 1.82687 11.6257C2.14842 13.2422 2.94209 14.7271 4.10753 15.8925C5.27297 17.058 6.75782 17.8516 8.37433 18.1732C9.99084 18.4947 11.6664 18.3297 13.1891 17.699C14.7118 17.0682 16.0133 16.0001 16.929 14.6297C17.8447 13.2593 18.3334 11.6481 18.3334 9.99996C18.3334 8.90561 18.1179 7.82198 17.6991 6.81093C17.2803 5.79988 16.6665 4.88122 15.8926 4.1074C15.1188 3.33358 14.2002 2.71975 13.1891 2.30096C12.1781 1.88217 11.0944 1.66663 10.0001 1.66663ZM10.0001 16.6666C8.68154 16.6666 7.39261 16.2756 6.29628 15.5431C5.19996 14.8105 4.34547 13.7694 3.84089 12.5512C3.3363 11.333 3.20428 9.99256 3.46152 8.69936C3.71875 7.40615 4.35369 6.21826 5.28604 5.28591C6.21839 4.35356 7.40628 3.71863 8.69948 3.46139C9.99269 3.20416 11.3331 3.33618 12.5513 3.84076C13.7695 4.34535 14.8107 5.19983 15.5432 6.29616C16.2758 7.39249 16.6668 8.68142 16.6668 9.99996C16.6668 11.7681 15.9644 13.4638 14.7141 14.714C13.4639 15.9642 11.7682 16.6666 10.0001 16.6666Z" fill="#F9681E"/>
<path d="M8.67454 10.9084L12.2495 7.32509C12.4057 7.16988 12.6169 7.08276 12.837 7.08276C13.0572 7.08276 13.2684 7.16988 13.4245 7.32509C13.5026 7.40256 13.5646 7.49473 13.6069 7.59628C13.6493 7.69783 13.671 7.80675 13.671 7.91676C13.671 8.02677 13.6493 8.13569 13.6069 8.23724C13.5646 8.33879 13.5026 8.43096 13.4245 8.50842L9.25787 12.6751C9.10266 12.829 8.89316 12.9158 8.67454 12.9168C8.56487 12.9174 8.45615 12.8964 8.35462 12.8549C8.25309 12.8134 8.16074 12.7523 8.08287 12.6751L6.12454 10.7084C6.0373 10.6337 5.96645 10.5418 5.91643 10.4384C5.86641 10.335 5.83831 10.2224 5.83387 10.1076C5.82944 9.99287 5.84878 9.87843 5.89067 9.77149C5.93257 9.66455 5.99612 9.56743 6.07733 9.48622C6.15854 9.405 6.25566 9.34146 6.3626 9.29956C6.46954 9.25766 6.58398 9.23833 6.69875 9.24276C6.81352 9.24719 6.92613 9.2753 7.02951 9.32532C7.1329 9.37534 7.22483 9.44619 7.29954 9.53342L8.67454 10.9084Z" fill="#F9681E"/>
</svg>
