<svg width="65" height="65" viewBox="0 0 65 65" fill="none" xmlns="http://www.w3.org/2000/svg">
<rect width="65" height="65" rx="32.5" fill="white"/>
<path d="M37.9102 33.5355C39.34 32.4106 40.3835 30.8681 40.8958 29.1225C41.408 27.3769 41.3634 25.515 40.7683 23.7959C40.1731 22.0768 39.0569 20.586 37.5749 19.5309C36.093 18.4757 34.319 17.9087 32.4998 17.9087C30.6806 17.9087 28.9066 18.4757 27.4247 19.5309C25.9428 20.586 24.8266 22.0768 24.2314 23.7959C23.6362 25.515 23.5916 27.3769 24.1038 29.1225C24.6161 30.8681 25.6597 32.4106 27.0894 33.5355C24.6395 34.517 22.5019 36.1449 20.9044 38.2458C19.307 40.3466 18.3096 42.8415 18.0186 45.4646C17.9975 45.6561 18.0144 45.8499 18.0682 46.0349C18.122 46.2199 18.2117 46.3925 18.3323 46.5428C18.5757 46.8464 18.9297 47.0408 19.3165 47.0834C19.7033 47.1259 20.0911 47.0131 20.3947 46.7697C20.6982 46.5263 20.8927 46.1722 20.9352 45.7855C21.2555 42.9347 22.6148 40.3018 24.7535 38.3899C26.8922 36.478 29.6603 35.4211 32.529 35.4211C35.3977 35.4211 38.1658 36.478 40.3045 38.3899C42.4432 40.3018 43.8025 42.9347 44.1227 45.7855C44.1624 46.1438 44.3334 46.4747 44.6027 46.7144C44.872 46.9541 45.2205 47.0856 45.5811 47.0834H45.7415C46.1238 47.0394 46.4732 46.8461 46.7135 46.5456C46.9539 46.2451 47.0658 45.8618 47.0248 45.4792C46.7324 42.8487 45.7296 40.3473 44.124 38.2433C42.5183 36.1392 40.3703 34.5118 37.9102 33.5355ZM32.4998 32.5C31.3461 32.5 30.2183 32.1579 29.259 31.5169C28.2997 30.876 27.552 29.9649 27.1105 28.899C26.669 27.8331 26.5535 26.6602 26.7786 25.5287C27.0036 24.3971 27.5592 23.3577 28.375 22.5419C29.1908 21.7261 30.2302 21.1705 31.3618 20.9455C32.4933 20.7204 33.6662 20.8359 34.7321 21.2774C35.798 21.7189 36.7091 22.4666 37.3501 23.4259C37.991 24.3852 38.3331 25.513 38.3331 26.6667C38.3331 28.2138 37.7186 29.6975 36.6246 30.7915C35.5306 31.8855 34.0469 32.5 32.4998 32.5Z" fill="#F9681E"/>
</svg>
