<svg width="65" height="65" viewBox="0 0 65 65" fill="none" xmlns="http://www.w3.org/2000/svg">
<rect width="65" height="65" rx="32.5" fill="white"/>
<path d="M46.0915 28.927L43.3353 28.0083L44.6332 25.4125C44.7647 25.1408 44.8088 24.8349 44.7591 24.5371C44.7095 24.2394 44.5687 23.9643 44.3561 23.75L41.2498 20.6437C41.0344 20.428 40.7567 20.2853 40.4558 20.2356C40.155 20.1859 39.8462 20.2317 39.5728 20.3666L36.9769 21.6645L36.0582 18.9083C35.9611 18.621 35.777 18.3711 35.5313 18.1933C35.2856 18.0156 34.9906 17.9189 34.6873 17.9166H30.3123C30.0066 17.9158 29.7084 18.0112 29.4598 18.1891C29.2112 18.3671 29.0248 18.6186 28.9269 18.9083L28.0082 21.6645L25.4123 20.3666C25.1406 20.2351 24.8348 20.1911 24.537 20.2407C24.2392 20.2903 23.9642 20.4311 23.7498 20.6437L20.6436 23.75C20.4279 23.9655 20.2851 24.2431 20.2354 24.544C20.1857 24.8448 20.2316 25.1536 20.3665 25.427L21.6644 28.0229L18.9082 28.9416C18.6209 29.0387 18.371 29.2228 18.1932 29.4685C18.0155 29.7142 17.9188 30.0092 17.9165 30.3125V34.6875C17.9157 34.9932 18.011 35.2914 18.189 35.54C18.3669 35.7887 18.6185 35.975 18.9082 36.0729L21.6644 36.9916L20.3665 39.5875C20.2349 39.8592 20.1909 40.165 20.2406 40.4628C20.2902 40.7606 20.431 41.0356 20.6436 41.25L23.7498 44.3562C23.9653 44.5719 24.243 44.7147 24.5438 44.7644C24.8447 44.8141 25.1535 44.7682 25.4269 44.6333L28.0228 43.3354L28.9415 46.0916C29.0393 46.3813 29.2257 46.6329 29.4743 46.8108C29.7229 46.9888 30.0212 47.0841 30.3269 47.0833H34.7019C35.0077 47.0841 35.3059 46.9888 35.5545 46.8108C35.8031 46.6329 35.9895 46.3813 36.0873 46.0916L37.0061 43.3354L39.6019 44.6333C39.8719 44.7615 40.1748 44.8038 40.4695 44.7542C40.7643 44.7046 41.0367 44.5657 41.2498 44.3562L44.3561 41.25C44.5718 41.0345 44.7145 40.7568 44.7642 40.456C44.8139 40.1551 44.7681 39.8463 44.6332 39.5729L43.3353 36.977L46.0915 36.0583C46.3788 35.9613 46.6287 35.7771 46.8065 35.5314C46.9842 35.2857 47.0809 34.9907 47.0832 34.6875V30.3125C47.084 30.0067 46.9886 29.7085 46.8107 29.4599C46.6327 29.2113 46.3812 29.0249 46.0915 28.927ZM44.1665 33.6375L42.4165 34.2208C42.0141 34.3513 41.6449 34.5678 41.3345 34.8553C41.0241 35.1428 40.78 35.4943 40.6191 35.8856C40.4581 36.2768 40.3842 36.6984 40.4025 37.1211C40.4207 37.5438 40.5307 37.9574 40.7248 38.3333L41.5561 39.9958L39.9519 41.6L38.3332 40.725C37.9592 40.5386 37.5495 40.4348 37.132 40.4206C36.7144 40.4064 36.2986 40.482 35.9128 40.6424C35.527 40.8028 35.1802 41.0442 34.8958 41.3503C34.6114 41.6565 34.3961 42.0201 34.2644 42.4166L33.6811 44.1666H31.3623L30.779 42.4166C30.6485 42.0142 30.432 41.645 30.1445 41.3346C29.857 41.0242 29.5055 40.7801 29.1142 40.6192C28.723 40.4582 28.3014 40.3843 27.8787 40.4026C27.456 40.4209 27.0424 40.5309 26.6665 40.725L25.004 41.5562L23.3998 39.952L24.2748 38.3333C24.4689 37.9574 24.5789 37.5438 24.5972 37.1211C24.6155 36.6984 24.5416 36.2768 24.3806 35.8856C24.2197 35.4943 23.9756 35.1428 23.6652 34.8553C23.3548 34.5678 22.9856 34.3513 22.5832 34.2208L20.8332 33.6375V31.3625L22.5832 30.7791C22.9856 30.6486 23.3548 30.4321 23.6652 30.1446C23.9756 29.8571 24.2197 29.5056 24.3806 29.1143C24.5416 28.7231 24.6155 28.3015 24.5972 27.8788C24.5789 27.4562 24.4689 27.0425 24.2748 26.6666L23.4436 25.0479L25.0478 23.4437L26.6665 24.275C27.0424 24.4691 27.456 24.5791 27.8787 24.5973C28.3014 24.6156 28.723 24.5417 29.1142 24.3807C29.5055 24.2198 29.857 23.9757 30.1445 23.6653C30.432 23.3549 30.6485 22.9857 30.779 22.5833L31.3623 20.8333H33.6373L34.2207 22.5833C34.3512 22.9857 34.5677 23.3549 34.8552 23.6653C35.1427 23.9757 35.4942 24.2198 35.8855 24.3807C36.2767 24.5417 36.6983 24.6156 37.121 24.5973C37.5436 24.5791 37.9573 24.4691 38.3332 24.275L39.9957 23.4437L41.5998 25.0479L40.7248 26.6666C40.5385 27.0406 40.4347 27.4503 40.4205 27.8678C40.4062 28.2854 40.4819 28.7012 40.6423 29.087C40.8027 29.4728 41.0441 29.8196 41.3502 30.104C41.6563 30.3884 42.02 30.6037 42.4165 30.7354L44.1665 31.3187V33.6375ZM32.4998 26.6666C31.3461 26.6666 30.2183 27.0087 29.259 27.6497C28.2997 28.2907 27.5521 29.2017 27.1105 30.2676C26.669 31.3335 26.5535 32.5064 26.7786 33.638C27.0037 34.7695 27.5592 35.8089 28.3751 36.6248C29.1909 37.4406 30.2303 37.9961 31.3618 38.2212C32.4934 38.4463 33.6663 38.3308 34.7322 37.8893C35.7981 37.4477 36.7091 36.7001 37.3501 35.7408C37.9911 34.7815 38.3332 33.6537 38.3332 32.5C38.3332 30.9529 37.7186 29.4691 36.6246 28.3752C35.5307 27.2812 34.0469 26.6666 32.4998 26.6666ZM32.4998 35.4166C31.923 35.4166 31.3591 35.2456 30.8794 34.9251C30.3998 34.6046 30.0259 34.1491 29.8052 33.6161C29.5844 33.0832 29.5267 32.4967 29.6392 31.9309C29.7518 31.3652 30.0295 30.8455 30.4374 30.4376C30.8453 30.0297 31.365 29.7519 31.9308 29.6393C32.4966 29.5268 33.083 29.5846 33.616 29.8053C34.149 30.0261 34.6045 30.3999 34.925 30.8795C35.2454 31.3592 35.4165 31.9231 35.4165 32.5C35.4165 33.2735 35.1092 34.0154 34.5622 34.5624C34.0153 35.1093 33.2734 35.4166 32.4998 35.4166Z" fill="#F9681E"/>
</svg>
