<svg width="65" height="65" viewBox="0 0 65 65" fill="none" xmlns="http://www.w3.org/2000/svg">
<rect width="65" height="65" rx="32.5" fill="white"/>
<path d="M20.4106 38.7563C20.2719 38.6235 20.1084 38.5194 19.9293 38.45C19.5743 38.3041 19.1761 38.3041 18.821 38.45C18.642 38.5194 18.4785 38.6235 18.3398 38.7563C18.207 38.8949 18.1029 39.0585 18.0335 39.2375C17.9218 39.5031 17.8913 39.7958 17.9458 40.0787C18.0003 40.3616 18.1374 40.622 18.3398 40.8271C18.4815 40.9559 18.6443 41.0595 18.821 41.1333C18.9956 41.2105 19.1843 41.2503 19.3752 41.2503C19.566 41.2503 19.7548 41.2105 19.9293 41.1333C20.1061 41.0595 20.2688 40.9559 20.4106 40.8271C20.6129 40.622 20.75 40.3616 20.8045 40.0787C20.859 39.7958 20.8285 39.5031 20.7168 39.2375C20.6474 39.0585 20.5434 38.8949 20.4106 38.7563ZM25.2085 26.6667H45.6252C46.0119 26.6667 46.3829 26.513 46.6564 26.2395C46.9299 25.966 47.0835 25.5951 47.0835 25.2083C47.0835 24.8216 46.9299 24.4506 46.6564 24.1771C46.3829 23.9036 46.0119 23.75 45.6252 23.75H25.2085C24.8217 23.75 24.4508 23.9036 24.1773 24.1771C23.9038 24.4506 23.7502 24.8216 23.7502 25.2083C23.7502 25.5951 23.9038 25.966 24.1773 26.2395C24.4508 26.513 24.8217 26.6667 25.2085 26.6667ZM20.4106 31.4646C20.2055 31.2622 19.9451 31.1252 19.6622 31.0706C19.3793 31.0161 19.0866 31.0467 18.821 31.1583C18.6443 31.2322 18.4815 31.3358 18.3398 31.4646C18.207 31.6033 18.1029 31.7668 18.0335 31.9458C17.9564 32.1204 17.9165 32.3091 17.9165 32.5C17.9165 32.6909 17.9564 32.8796 18.0335 33.0542C18.1074 33.2309 18.2109 33.3937 18.3398 33.5354C18.4815 33.6642 18.6443 33.7678 18.821 33.8417C18.9956 33.9188 19.1843 33.9587 19.3752 33.9587C19.566 33.9587 19.7548 33.9188 19.9293 33.8417C20.1061 33.7678 20.2688 33.6642 20.4106 33.5354C20.5394 33.3937 20.643 33.2309 20.7168 33.0542C20.794 32.8796 20.8338 32.6909 20.8338 32.5C20.8338 32.3091 20.794 32.1204 20.7168 31.9458C20.6474 31.7668 20.5434 31.6033 20.4106 31.4646ZM45.6252 31.0417H25.2085C24.8217 31.0417 24.4508 31.1953 24.1773 31.4688C23.9038 31.7423 23.7502 32.1132 23.7502 32.5C23.7502 32.8868 23.9038 33.2577 24.1773 33.5312C24.4508 33.8047 24.8217 33.9583 25.2085 33.9583H45.6252C46.0119 33.9583 46.3829 33.8047 46.6564 33.5312C46.9299 33.2577 47.0835 32.8868 47.0835 32.5C47.0835 32.1132 46.9299 31.7423 46.6564 31.4688C46.3829 31.1953 46.0119 31.0417 45.6252 31.0417ZM20.4106 24.1729C20.2719 24.0401 20.1084 23.9361 19.9293 23.8667C19.6638 23.755 19.3711 23.7245 19.0882 23.779C18.8053 23.8335 18.5448 23.9706 18.3398 24.1729C18.2109 24.3147 18.1074 24.4774 18.0335 24.6542C17.9564 24.8287 17.9165 25.0175 17.9165 25.2083C17.9165 25.3992 17.9564 25.5879 18.0335 25.7625C18.1074 25.9392 18.2109 26.102 18.3398 26.2438C18.4815 26.3726 18.6443 26.4761 18.821 26.55C19.0866 26.6617 19.3793 26.6922 19.6622 26.6377C19.9451 26.5832 20.2055 26.4461 20.4106 26.2438C20.5394 26.102 20.643 25.9392 20.7168 25.7625C20.794 25.5879 20.8338 25.3992 20.8338 25.2083C20.8338 25.0175 20.794 24.8287 20.7168 24.6542C20.643 24.4774 20.5394 24.3147 20.4106 24.1729ZM45.6252 38.3333H25.2085C24.8217 38.3333 24.4508 38.487 24.1773 38.7605C23.9038 39.034 23.7502 39.4049 23.7502 39.7917C23.7502 40.1784 23.9038 40.5494 24.1773 40.8229C24.4508 41.0964 24.8217 41.25 25.2085 41.25H45.6252C46.0119 41.25 46.3829 41.0964 46.6564 40.8229C46.9299 40.5494 47.0835 40.1784 47.0835 39.7917C47.0835 39.4049 46.9299 39.034 46.6564 38.7605C46.3829 38.487 46.0119 38.3333 45.6252 38.3333Z" fill="#F9681E"/>
</svg>
