<svg width="65" height="65" viewBox="0 0 65 65" fill="none" xmlns="http://www.w3.org/2000/svg">
<rect width="65" height="65" rx="32.5" fill="white"/>
<path d="M19.3748 28.125C19.7616 28.125 20.1325 27.9713 20.406 27.6978C20.6795 27.4243 20.8332 27.0534 20.8332 26.6666V22.2916C20.8332 21.9049 20.9868 21.5339 21.2603 21.2604C21.5338 20.9869 21.9047 20.8333 22.2915 20.8333H26.6665C27.0533 20.8333 27.4242 20.6796 27.6977 20.4062C27.9712 20.1327 28.1248 19.7617 28.1248 19.375C28.1248 18.9882 27.9712 18.6173 27.6977 18.3438C27.4242 18.0703 27.0533 17.9166 26.6665 17.9166H22.2915C21.1312 17.9166 20.0184 18.3776 19.1979 19.198C18.3774 20.0185 17.9165 21.1313 17.9165 22.2916V26.6666C17.9165 27.0534 18.0701 27.4243 18.3436 27.6978C18.6171 27.9713 18.9881 28.125 19.3748 28.125ZM26.6665 44.1666H22.2915C21.9047 44.1666 21.5338 44.013 21.2603 43.7395C20.9868 43.466 20.8332 43.0951 20.8332 42.7083V38.3333C20.8332 37.9465 20.6795 37.5756 20.406 37.3021C20.1325 37.0286 19.7616 36.875 19.3748 36.875C18.9881 36.875 18.6171 37.0286 18.3436 37.3021C18.0701 37.5756 17.9165 37.9465 17.9165 38.3333V42.7083C17.9165 43.8686 18.3774 44.9814 19.1979 45.8019C20.0184 46.6224 21.1312 47.0833 22.2915 47.0833H26.6665C27.0533 47.0833 27.4242 46.9296 27.6977 46.6562C27.9712 46.3827 28.1248 46.0117 28.1248 45.625C28.1248 45.2382 27.9712 44.8673 27.6977 44.5938C27.4242 44.3203 27.0533 44.1666 26.6665 44.1666ZM39.7915 33.9583C40.1783 33.9583 40.5492 33.8046 40.8227 33.5312C41.0962 33.2577 41.2498 32.8867 41.2498 32.5C41.2498 32.1132 41.0962 31.7423 40.8227 31.4688C40.5492 31.1953 40.1783 31.0416 39.7915 31.0416H38.129C37.8671 30.0385 37.3427 29.1233 36.6096 28.3902C35.8765 27.6571 34.9613 27.1326 33.9582 26.8708V25.2083C33.9582 24.8215 33.8045 24.4506 33.531 24.1771C33.2575 23.9036 32.8866 23.75 32.4998 23.75C32.1131 23.75 31.7421 23.9036 31.4686 24.1771C31.1951 24.4506 31.0415 24.8215 31.0415 25.2083V26.8708C30.0384 27.1326 29.1232 27.6571 28.3901 28.3902C27.657 29.1233 27.1325 30.0385 26.8707 31.0416H25.2082C24.8214 31.0416 24.4505 31.1953 24.177 31.4688C23.9035 31.7423 23.7498 32.1132 23.7498 32.5C23.7498 32.8867 23.9035 33.2577 24.177 33.5312C24.4505 33.8046 24.8214 33.9583 25.2082 33.9583H26.8707C27.1325 34.9614 27.657 35.8766 28.3901 36.6097C29.1232 37.3428 30.0384 37.8673 31.0415 38.1291V39.7916C31.0415 40.1784 31.1951 40.5493 31.4686 40.8228C31.7421 41.0963 32.1131 41.25 32.4998 41.25C32.8866 41.25 33.2575 41.0963 33.531 40.8228C33.8045 40.5493 33.9582 40.1784 33.9582 39.7916V38.1291C34.9613 37.8673 35.8765 37.3428 36.6096 36.6097C37.3427 35.8766 37.8671 34.9614 38.129 33.9583H39.7915ZM32.4998 35.4166C31.923 35.4166 31.3591 35.2456 30.8794 34.9251C30.3998 34.6046 30.0259 34.1491 29.8052 33.6161C29.5844 33.0832 29.5267 32.4967 29.6392 31.9309C29.7518 31.3652 30.0295 30.8455 30.4374 30.4376C30.8453 30.0297 31.365 29.7519 31.9308 29.6393C32.4966 29.5268 33.083 29.5846 33.616 29.8053C34.1489 30.0261 34.6045 30.3999 34.925 30.8795C35.2454 31.3592 35.4165 31.9231 35.4165 32.5C35.4165 33.2735 35.1092 34.0154 34.5622 34.5624C34.0152 35.1093 33.2734 35.4166 32.4998 35.4166ZM45.6248 36.875C45.2381 36.875 44.8671 37.0286 44.5936 37.3021C44.3201 37.5756 44.1665 37.9465 44.1665 38.3333V42.7083C44.1665 43.0951 44.0129 43.466 43.7394 43.7395C43.4659 44.013 43.0949 44.1666 42.7082 44.1666H38.3332C37.9464 44.1666 37.5755 44.3203 37.302 44.5938C37.0285 44.8673 36.8748 45.2382 36.8748 45.625C36.8748 46.0117 37.0285 46.3827 37.302 46.6562C37.5755 46.9296 37.9464 47.0833 38.3332 47.0833H42.7082C43.8685 47.0833 44.9813 46.6224 45.8018 45.8019C46.6222 44.9814 47.0832 43.8686 47.0832 42.7083V38.3333C47.0832 37.9465 46.9295 37.5756 46.656 37.3021C46.3825 37.0286 46.0116 36.875 45.6248 36.875ZM42.7082 17.9166H38.3332C37.9464 17.9166 37.5755 18.0703 37.302 18.3438C37.0285 18.6173 36.8748 18.9882 36.8748 19.375C36.8748 19.7617 37.0285 20.1327 37.302 20.4062C37.5755 20.6796 37.9464 20.8333 38.3332 20.8333H42.7082C43.0949 20.8333 43.4659 20.9869 43.7394 21.2604C44.0129 21.5339 44.1665 21.9049 44.1665 22.2916V26.6666C44.1665 27.0534 44.3201 27.4243 44.5936 27.6978C44.8671 27.9713 45.2381 28.125 45.6248 28.125C46.0116 28.125 46.3825 27.9713 46.656 27.6978C46.9295 27.4243 47.0832 27.0534 47.0832 26.6666V22.2916C47.0832 21.1313 46.6222 20.0185 45.8018 19.198C44.9813 18.3776 43.8685 17.9166 42.7082 17.9166Z" fill="#F9681E"/>
</svg>
