<svg width="180" height="46" viewBox="0 0 180 46" fill="none" xmlns="http://www.w3.org/2000/svg">
<path d="M18.2651 32.6213V33.5241C18.2651 36.4784 15.822 38.8731 12.808 38.8731C9.79397 38.8731 7.35084 36.4784 7.35084 33.5241V32.6213H0V33.1414C0 40.0748 5.73449 45.6954 12.808 45.6954C19.8814 45.6954 25.6158 40.0748 25.6158 33.1414V32.6213H18.2651Z" fill="#0A0A0A"/>
<path d="M18.2651 6.07184V22.9531H12.8082C9.79423 22.9531 7.35084 20.5582 7.35084 17.6039V6.07184H0V17.2211C0 24.1546 5.73449 29.7751 12.808 29.7751H25.6158V6.0719L18.2651 6.07184Z" fill="#0A0A0A"/>
<path d="M71.1293 14.8566C71.1293 11.838 69.1571 9.73485 66.7346 9.73485C64.3124 9.73485 62.3397 11.838 62.3397 14.8566C62.3397 17.8076 64.3124 19.8425 66.7346 19.8425C69.1571 19.8425 71.1293 17.8076 71.1293 14.8566ZM75.7317 14.8227C75.7317 20.0461 71.683 23.9473 66.7346 23.9473C61.786 23.9473 57.7721 20.0461 57.7721 14.8227C57.7721 9.59937 61.786 5.63066 66.7346 5.63066C71.683 5.63066 75.7317 9.59937 75.7317 14.8227Z" fill="#F9681E"/>
<path d="M114.353 14.2123H109.785V13.3299C109.785 12.313 109.473 9.87072 106.463 9.87072C104.421 9.87072 103.002 11.3628 103.002 13.3299V23.5397H98.4344V6.07172H102.795V7.76764C103.937 6.44466 105.494 5.63066 107.397 5.63066C111.584 5.63066 114.353 8.71694 114.353 13.3299L114.353 14.2123Z" fill="#F9681E"/>
<path d="M121.759 23.5397H117.192V6.07172H121.759V23.5397ZM121.759 4.17237H117.192V0H121.759V4.17237Z" fill="#F9681E"/>
<path d="M133.282 23.9471C128.75 23.9471 125.393 21.6064 124.839 17.8414H129.476C130.099 19.3333 131.933 19.8762 133.282 19.8762C135.117 19.8762 136.501 19.3333 136.501 18.3165C136.501 17.3325 135.878 16.9258 132.763 16.4508C129.58 15.9757 125.323 15.1278 125.323 11.2274C125.323 8.4793 127.78 5.63072 132.936 5.63072C137.02 5.63072 140.065 7.80148 140.653 11.0914H135.912C135.635 10.2774 134.632 9.63308 132.936 9.63308C130.825 9.63308 129.96 10.3796 129.96 11.0239C129.96 11.9395 131.276 12.2444 133.49 12.5841C137.92 13.2962 141.103 14.2463 141.103 18.045C141.103 21.5042 137.85 23.9471 133.282 23.9471Z" fill="#F9681E"/>
<path d="M159.686 16.2471C159.686 20.6563 156.641 23.947 151.866 23.947C147.09 23.947 144.01 20.6563 144.01 16.2471V1.62793H148.578V6.07178H159.513V10.2775H148.578V16.4846C148.578 18.079 149.582 19.707 151.866 19.707C154.115 19.707 155.119 18.079 155.119 16.4846V14.8227H159.686V16.2471Z" fill="#F9681E"/>
<path d="M175.398 14.8566C175.398 11.838 173.425 9.73485 171.003 9.73485C168.581 9.73485 166.608 11.838 166.608 14.8566C166.608 17.8076 168.581 19.8425 171.003 19.8425C173.425 19.8425 175.398 17.8076 175.398 14.8566ZM180 14.8227C180 20.0461 175.951 23.9473 171.003 23.9473C166.054 23.9473 162.04 20.0461 162.04 14.8227C162.04 9.59937 166.054 5.63066 171.003 5.63066C175.951 5.63066 180 9.59937 180 14.8227Z" fill="#F9681E"/>
<path d="M55.1407 23.7748C55.1407 28.3654 52.0746 31.4036 47.4247 31.4036C43.6171 31.4036 40.4832 28.9598 39.8768 25.4591H44.493C44.7624 26.7142 45.9079 27.3417 47.4246 27.3417C49.8507 27.3417 50.6928 25.6574 50.6928 24.0719V22.09C49.6483 22.9485 48.3004 23.4771 46.7167 23.4771C42.4711 23.4771 39.6407 20.4718 39.6407 16.0128V6.0719H44.0886V16.0128C44.0886 16.9711 44.4256 19.3489 47.3233 19.3489C49.3114 19.3489 50.6928 17.929 50.6928 16.0128V6.0719H55.1407L55.1407 23.7748Z" fill="#F9681E"/>
<path d="M89.7134 6.07184V16.1459C89.7134 17.9816 88.1951 19.4698 86.3222 19.4698C84.4491 19.4698 82.931 17.9815 82.931 16.1459V6.07184H78.3632V16.1459C78.3632 20.4545 81.9265 23.9472 86.3223 23.9472C90.718 23.9472 94.2813 20.4545 94.2813 16.1459V6.07184H89.7134Z" fill="#F9681E"/>
<path d="M124.602 39.185C124.602 35.8532 122.059 33.1571 118.894 33.1571C115.755 33.1571 113.186 35.8532 113.186 39.185C113.186 42.4403 115.755 45.1114 118.894 45.1114C122.059 45.1114 124.602 42.4403 124.602 39.185ZM125.589 39.185C125.589 42.9497 122.578 46 118.894 46C115.235 46 112.226 42.9497 112.226 39.185C112.226 35.3707 115.235 32.2687 118.894 32.2687C122.578 32.2687 125.589 35.3708 125.589 39.185Z" fill="#0A0A0A"/>
<path d="M139.399 45.6954H138.44V37.7873C138.44 34.9131 136.858 33.1841 133.925 33.1841C131.228 33.1841 129.125 35.141 129.125 37.7873V45.6954H128.166V32.598H129.125V34.8117C130.084 33.2586 131.823 32.2687 133.951 32.2687C137.375 32.2687 139.399 34.3789 139.399 37.7872L139.399 45.6954Z" fill="#0A0A0A"/>
<path d="M144.129 45.6955H143.17V26.7751H144.129V45.6955Z" fill="#0A0A0A"/>
<path d="M149.087 45.6955H148.128V32.598H149.087V45.6955ZM149.087 30.3864H148.128V28.0464H149.087V30.3864Z" fill="#0A0A0A"/>
<path d="M164.191 45.6954H163.231V37.7873C163.231 34.9131 161.649 33.1841 158.717 33.1841C156.019 33.1841 153.917 35.141 153.917 37.7873V45.6954H152.958V32.598H153.917V34.8117C154.876 33.2586 156.615 32.2687 158.742 32.2687C162.167 32.2687 164.191 34.3789 164.191 37.7872L164.191 45.6954Z" fill="#0A0A0A"/>
<path d="M178.962 38.1932C178.495 35.3708 176.135 33.2337 173.332 33.2337C170.505 33.2337 168.169 35.3707 167.727 38.1932H178.962ZM167.623 39.1332C167.651 42.5415 170.245 45.0596 173.488 45.0596C176.628 45.0596 178.053 43.3556 178.702 41.6264H179.714C178.78 44.4488 176.628 45.9999 173.488 45.9999C169.673 45.9999 166.664 42.9993 166.664 39.185C166.664 35.3707 169.647 32.2688 173.332 32.2688C177.327 32.2688 180.052 35.8284 179.999 39.1332H167.623Z" fill="#0A0A0A"/>
<path d="M107.062 43.5489H109.252V45.6955H107.062V43.5489Z" fill="#0A0A0A"/>
</svg>
