<svg width="65" height="65" viewBox="0 0 65 65" fill="none" xmlns="http://www.w3.org/2000/svg">
<rect width="65" height="65" rx="32.5" fill="#F5F5F5"/>
<path d="M48.4894 35.158C48.4837 35.0722 48.4699 34.9872 48.4483 34.904L45.0873 25.954C45.699 25.5584 46.202 25.0161 46.5506 24.3764C46.8992 23.7368 47.0823 23.0201 47.0833 22.2917C47.0833 21.9049 46.9296 21.5339 46.6561 21.2605C46.3826 20.987 46.0117 20.8333 45.6249 20.8333C45.2381 20.8333 44.8672 20.987 44.5937 21.2605C44.3202 21.5339 44.1666 21.9049 44.1666 22.2917C44.1665 22.6166 44.0578 22.9323 43.8579 23.1885C43.658 23.4447 43.3783 23.6269 43.0631 23.7061C42.7479 23.7852 42.4153 23.7569 42.118 23.6255C41.8208 23.4942 41.5759 23.2673 41.4222 22.981C41.048 22.3167 40.5008 21.7662 39.8388 21.3881C39.1768 21.0099 38.4247 20.8182 37.6624 20.8333H33.9583V19.375C33.9583 18.9882 33.8046 18.6173 33.5311 18.3438C33.2576 18.0703 32.8867 17.9167 32.4999 17.9167C32.1131 17.9167 31.7422 18.0703 31.4687 18.3438C31.1952 18.6173 31.0416 18.9882 31.0416 19.375V20.8333H27.3374C26.5752 20.8182 25.8231 21.0099 25.161 21.3881C24.499 21.7662 23.9518 22.3167 23.5776 22.981C23.4239 23.2673 23.179 23.4942 22.8818 23.6255C22.5845 23.7569 22.2519 23.7852 21.9367 23.7061C21.6215 23.6269 21.3418 23.4447 21.1419 23.1885C20.942 22.9323 20.8334 22.6166 20.8333 22.2917C20.8333 21.9049 20.6796 21.5339 20.4061 21.2605C20.1326 20.987 19.7617 20.8333 19.3749 20.8333C18.9881 20.8333 18.6172 20.987 18.3437 21.2605C18.0702 21.5339 17.9166 21.9049 17.9166 22.2917C17.9175 23.0201 18.1006 23.7368 18.4492 24.3764C18.7978 25.0161 19.3009 25.5584 19.9125 25.954L16.5516 34.904C16.53 34.9872 16.5162 35.0722 16.5105 35.158C16.4849 35.2424 16.4674 35.329 16.4583 35.4167C16.4583 35.4302 16.4622 35.4426 16.4623 35.4562C16.4627 35.4754 16.4666 35.4931 16.4679 35.5122C16.4907 37.0418 17.1142 38.501 18.2039 39.5746C19.2936 40.6483 20.7619 41.2501 22.2916 41.2501C23.8213 41.2501 25.2896 40.6483 26.3793 39.5746C27.469 38.501 28.0925 37.0418 28.1152 35.5122C28.1165 35.4931 28.1205 35.4754 28.1209 35.4562C28.121 35.4426 28.1249 35.4302 28.1249 35.4167C28.1158 35.329 28.0983 35.2424 28.0728 35.158C28.067 35.0722 28.0532 34.9872 28.0316 34.904L24.6667 25.9436C25.2847 25.5492 25.7933 25.0054 26.1453 24.3624C26.2726 24.1644 26.4498 24.0036 26.6591 23.8961C26.8684 23.7886 27.1024 23.7382 27.3374 23.75H31.0416V44.1667H26.6666C26.2798 44.1667 25.9089 44.3203 25.6354 44.5938C25.3619 44.8673 25.2083 45.2382 25.2083 45.625C25.2083 46.0118 25.3619 46.3827 25.6354 46.6562C25.9089 46.9297 26.2798 47.0833 26.6666 47.0833H38.3333C38.72 47.0833 39.091 46.9297 39.3645 46.6562C39.6379 46.3827 39.7916 46.0118 39.7916 45.625C39.7916 45.2382 39.6379 44.8673 39.3645 44.5938C39.091 44.3203 38.72 44.1667 38.3333 44.1667H33.9583V23.75H37.6624C37.8974 23.7382 38.1314 23.7886 38.3407 23.8961C38.55 24.0036 38.7272 24.1645 38.8544 24.3624C39.2065 25.0054 39.7151 25.5492 40.3331 25.9436L36.9683 34.904C36.9467 34.9872 36.9329 35.0722 36.9271 35.158C36.9015 35.2424 36.884 35.329 36.8749 35.4167C36.8749 35.4302 36.8788 35.4426 36.8789 35.4562C36.8794 35.4754 36.8833 35.4931 36.8846 35.5122C36.9073 37.0418 37.5309 38.501 38.6206 39.5746C39.7102 40.6483 41.1785 41.2501 42.7083 41.2501C44.238 41.2501 45.7063 40.6483 46.796 39.5746C47.8856 38.501 48.5092 37.0418 48.5319 35.5122C48.5331 35.4931 48.5371 35.4754 48.5376 35.4562C48.5377 35.4426 48.5416 35.4302 48.5416 35.4167C48.5325 35.329 48.515 35.2424 48.4894 35.158ZM22.2916 27.9143L24.5613 33.9583H20.0218L22.2916 27.9143ZM24.8038 36.875C24.5464 37.3141 24.1798 37.6792 23.7396 37.9348C23.2994 38.1903 22.8006 38.3276 22.2916 38.3333C21.7798 38.3331 21.277 38.1983 20.8338 37.9423C20.3906 37.6863 20.0225 37.3182 19.7666 36.875H24.8038ZM42.7083 27.9143L44.978 33.9583H40.4385L42.7083 27.9143ZM42.7083 38.3333C42.1964 38.3331 41.6937 38.1983 41.2504 37.9423C40.8072 37.6863 40.4392 37.3182 40.1832 36.875H45.2205C44.9631 37.3141 44.5965 37.6792 44.1563 37.9348C43.7161 38.1903 43.2172 38.3276 42.7083 38.3333Z" fill="#F9681E"/>
</svg>
