<svg width="65" height="65" viewBox="0 0 65 65" fill="none" xmlns="http://www.w3.org/2000/svg">
<rect width="65" height="65" rx="32.5" fill="#F5F5F5"/>
<path d="M46.3397 29.8604L44.8814 29.0583L31.7564 21.7667H31.5959C31.5065 21.7289 31.4138 21.6996 31.3189 21.6792H31.0418H30.7793C30.6796 21.6996 30.582 21.7289 30.4876 21.7667H30.3272L17.2022 29.0583C16.9778 29.1855 16.7911 29.37 16.6612 29.5929C16.5313 29.8158 16.4629 30.0691 16.4629 30.3271C16.4629 30.5851 16.5313 30.8384 16.6612 31.0613C16.7911 31.2842 16.9778 31.4686 17.2022 31.5958L20.8334 33.6083V40.5208C20.8334 41.6812 21.2944 42.794 22.1148 43.6144C22.9353 44.4349 24.0481 44.8958 25.2084 44.8958H36.8751C38.0354 44.8958 39.1482 44.4349 39.9687 43.6144C40.7892 42.794 41.2501 41.6812 41.2501 40.5208V33.6083L44.1668 31.975V36.1458C44.1668 36.5326 44.3204 36.9035 44.5939 37.177C44.8674 37.4505 45.2383 37.6042 45.6251 37.6042C46.0119 37.6042 46.3828 37.4505 46.6563 37.177C46.9298 36.9035 47.0834 36.5326 47.0834 36.1458V31.1292C47.083 30.8708 47.0139 30.6171 46.8832 30.3942C46.7525 30.1712 46.565 29.987 46.3397 29.8604ZM38.3334 40.5208C38.3334 40.9076 38.1798 41.2785 37.9063 41.552C37.6328 41.8255 37.2619 41.9792 36.8751 41.9792H25.2084C24.8217 41.9792 24.4507 41.8255 24.1772 41.552C23.9038 41.2785 23.7501 40.9076 23.7501 40.5208V35.2271L30.3272 38.8729L30.5459 38.9604H30.6772C30.7982 38.9757 30.9207 38.9757 31.0418 38.9604C31.1628 38.9757 31.2853 38.9757 31.4064 38.9604H31.5376C31.615 38.9441 31.689 38.9145 31.7564 38.8729L38.3334 35.2271V40.5208ZM31.0418 35.9417L20.9209 30.3125L31.0418 24.6833L41.1626 30.3125L31.0418 35.9417Z" fill="#F9681E"/>
</svg>
