<svg width="65" height="65" viewBox="0 0 65 65" fill="none" xmlns="http://www.w3.org/2000/svg">
<rect width="65" height="65" rx="32.5" fill="#F5F5F5"/>
<path d="M41.2502 42.7083H23.7502C22.5898 42.7083 21.477 42.2474 20.6566 41.4269C19.8361 40.6065 19.3752 39.4937 19.3752 38.3333V26.6667C19.3752 26.2799 19.2215 25.909 18.948 25.6355C18.6745 25.362 18.3036 25.2083 17.9168 25.2083C17.5301 25.2083 17.1591 25.362 16.8856 25.6355C16.6121 25.909 16.4585 26.2799 16.4585 26.6667V38.3333C16.4585 40.2672 17.2267 42.1219 18.5942 43.4893C19.2713 44.1664 20.0751 44.7035 20.9598 45.07C21.8444 45.4364 22.7926 45.625 23.7502 45.625H41.2502C41.6369 45.625 42.0079 45.4714 42.2814 45.1979C42.5549 44.9244 42.7085 44.5534 42.7085 44.1667C42.7085 43.7799 42.5549 43.409 42.2814 43.1355C42.0079 42.862 41.6369 42.7083 41.2502 42.7083ZM35.4168 31.0417H29.5835C29.1967 31.0417 28.8258 31.1953 28.5523 31.4688C28.2788 31.7423 28.1252 32.1132 28.1252 32.5C28.1252 32.8868 28.2788 33.2577 28.5523 33.5312C28.8258 33.8047 29.1967 33.9583 29.5835 33.9583H35.4168C35.8036 33.9583 36.1745 33.8047 36.448 33.5312C36.7215 33.2577 36.8752 32.8868 36.8752 32.5C36.8752 32.1132 36.7215 31.7423 36.448 31.4688C36.1745 31.1953 35.8036 31.0417 35.4168 31.0417ZM48.5418 29.4958C48.5266 29.3619 48.4973 29.2299 48.4543 29.1021V28.9708C48.3842 28.8209 48.2907 28.6831 48.1772 28.5625L39.4272 19.8125C39.3067 19.6991 39.1689 19.6055 39.0189 19.5354H38.8877C38.7395 19.4505 38.5759 19.3959 38.4064 19.375H26.6668C25.5065 19.375 24.3937 19.8359 23.5732 20.6564C22.7528 21.4769 22.2918 22.5897 22.2918 23.75V35.4167C22.2918 36.577 22.7528 37.6898 23.5732 38.5103C24.3937 39.3307 25.5065 39.7917 26.6668 39.7917H44.1668C45.3272 39.7917 46.44 39.3307 47.2604 38.5103C48.0809 37.6898 48.5418 36.577 48.5418 35.4167V29.5833C48.5418 29.5833 48.5418 29.5833 48.5418 29.4958ZM39.7918 24.3479L43.5689 28.125H41.2502C40.8634 28.125 40.4925 27.9714 40.219 27.6979C39.9455 27.4244 39.7918 27.0534 39.7918 26.6667V24.3479ZM45.6252 35.4167C45.6252 35.8034 45.4715 36.1744 45.198 36.4479C44.9245 36.7214 44.5536 36.875 44.1668 36.875H26.6668C26.2801 36.875 25.9091 36.7214 25.6356 36.4479C25.3621 36.1744 25.2085 35.8034 25.2085 35.4167V23.75C25.2085 23.3632 25.3621 22.9923 25.6356 22.7188C25.9091 22.4453 26.2801 22.2917 26.6668 22.2917H36.8752V26.6667C36.8752 27.827 37.3361 28.9398 38.1566 29.7603C38.977 30.5807 40.0898 31.0417 41.2502 31.0417H45.6252V35.4167ZM29.5835 28.125H32.5002C32.8869 28.125 33.2579 27.9714 33.5314 27.6979C33.8049 27.4244 33.9585 27.0534 33.9585 26.6667C33.9585 26.2799 33.8049 25.909 33.5314 25.6355C33.2579 25.362 32.8869 25.2083 32.5002 25.2083H29.5835C29.1967 25.2083 28.8258 25.362 28.5523 25.6355C28.2788 25.909 28.1252 26.2799 28.1252 26.6667C28.1252 27.0534 28.2788 27.4244 28.5523 27.6979C28.8258 27.9714 29.1967 28.125 29.5835 28.125Z" fill="#F9681E"/>
</svg>
