<svg width="65" height="65" viewBox="0 0 65 65" fill="none" xmlns="http://www.w3.org/2000/svg">
<rect width="65" height="65" rx="32.5" fill="#F5F5F5"/>
<path d="M31.771 44.1667H23.021C22.6342 44.1667 22.2633 44.013 21.9898 43.7395C21.7163 43.466 21.5627 43.0951 21.5627 42.7083V22.2917C21.5627 21.9049 21.7163 21.534 21.9898 21.2605C22.2633 20.987 22.6342 20.8333 23.021 20.8333H30.3127V25.2083C30.3127 26.3686 30.7736 27.4814 31.5941 28.3019C32.4145 29.1224 33.5273 29.5833 34.6877 29.5833H39.0627V36.875C39.0627 37.2618 39.2163 37.6327 39.4898 37.9062C39.7633 38.1797 40.1342 38.3333 40.521 38.3333C40.9078 38.3333 41.2787 38.1797 41.5522 37.9062C41.8257 37.6327 41.9793 37.2618 41.9793 36.875V28.125C41.9793 28.125 41.9793 28.125 41.9793 28.0375C41.9641 27.9035 41.9348 27.7715 41.8918 27.6437V27.5125C41.8217 27.3625 41.7282 27.2247 41.6147 27.1042L32.8647 18.3542C32.7442 18.2407 32.6064 18.1472 32.4564 18.0771C32.4082 18.0686 32.3588 18.0686 32.3106 18.0771C32.1688 18.0012 32.0164 17.9472 31.8585 17.9167H23.021C21.8607 17.9167 20.7479 18.3776 19.9274 19.1981C19.1069 20.0185 18.646 21.1313 18.646 22.2917V42.7083C18.646 43.8686 19.1069 44.9814 19.9274 45.8019C20.7479 46.6224 21.8607 47.0833 23.021 47.0833H31.771C32.1578 47.0833 32.5287 46.9297 32.8022 46.6562C33.0757 46.3827 33.2293 46.0118 33.2293 45.625C33.2293 45.2382 33.0757 44.8673 32.8022 44.5938C32.5287 44.3203 32.1578 44.1667 31.771 44.1667ZM33.2293 22.8896L37.0064 26.6667H34.6877C34.3009 26.6667 33.93 26.513 33.6565 26.2395C33.383 25.966 33.2293 25.5951 33.2293 25.2083V22.8896ZM25.9377 35.4167H34.6877C35.0744 35.4167 35.4454 35.263 35.7189 34.9895C35.9924 34.716 36.146 34.3451 36.146 33.9583C36.146 33.5715 35.9924 33.2006 35.7189 32.9271C35.4454 32.6536 35.0744 32.5 34.6877 32.5H25.9377C25.5509 32.5 25.18 32.6536 24.9065 32.9271C24.633 33.2006 24.4793 33.5715 24.4793 33.9583C24.4793 34.3451 24.633 34.716 24.9065 34.9895C25.18 35.263 25.5509 35.4167 25.9377 35.4167ZM31.771 38.3333H25.9377C25.5509 38.3333 25.18 38.487 24.9065 38.7605C24.633 39.0339 24.4793 39.4049 24.4793 39.7917C24.4793 40.1784 24.633 40.5494 24.9065 40.8229C25.18 41.0963 25.5509 41.25 25.9377 41.25H31.771C32.1578 41.25 32.5287 41.0963 32.8022 40.8229C33.0757 40.5494 33.2293 40.1784 33.2293 39.7917C33.2293 39.4049 33.0757 39.0339 32.8022 38.7605C32.5287 38.487 32.1578 38.3333 31.771 38.3333ZM25.9377 29.5833H27.396C27.7828 29.5833 28.1537 29.4297 28.4272 29.1562C28.7007 28.8827 28.8543 28.5118 28.8543 28.125C28.8543 27.7382 28.7007 27.3673 28.4272 27.0938C28.1537 26.8203 27.7828 26.6667 27.396 26.6667H25.9377C25.5509 26.6667 25.18 26.8203 24.9065 27.0938C24.633 27.3673 24.4793 27.7382 24.4793 28.125C24.4793 28.5118 24.633 28.8827 24.9065 29.1562C25.18 29.4297 25.5509 29.5833 25.9377 29.5833ZM45.9314 38.7562C45.7958 38.6196 45.6346 38.5111 45.4568 38.437C45.2791 38.363 45.0885 38.3249 44.896 38.3249C44.7035 38.3249 44.5129 38.363 44.3352 38.437C44.1574 38.5111 43.9962 38.6196 43.8606 38.7562L39.0627 43.5687L37.1814 41.6729C37.0454 41.5369 36.884 41.4291 36.7064 41.3555C36.5287 41.2819 36.3383 41.244 36.146 41.244C35.9537 41.244 35.7633 41.2819 35.5856 41.3555C35.408 41.4291 35.2466 41.5369 35.1106 41.6729C34.9746 41.8089 34.8667 41.9703 34.7932 42.148C34.7196 42.3256 34.6817 42.516 34.6817 42.7083C34.6817 42.9006 34.7196 43.091 34.7932 43.2687C34.8667 43.4463 34.9746 43.6078 35.1106 43.7437L38.0272 46.6604C38.1628 46.7971 38.3241 46.9056 38.5018 46.9796C38.6795 47.0537 38.8701 47.0918 39.0627 47.0918C39.2552 47.0918 39.4458 47.0537 39.6235 46.9796C39.8012 46.9056 39.9625 46.7971 40.0981 46.6604L45.9314 40.8271C46.0681 40.6915 46.1766 40.5302 46.2506 40.3525C46.3247 40.1748 46.3628 39.9842 46.3628 39.7917C46.3628 39.5991 46.3247 39.4085 46.2506 39.2308C46.1766 39.0531 46.0681 38.8918 45.9314 38.7562Z" fill="#F9681E"/>
</svg>
